<svg width="40" height="40" viewBox="0 0 40 40" fill="none" xmlns="http://www.w3.org/2000/svg">
<g clip-path="url(#clip0)">
<path d="M34.5236 11.8762C33.4941 11.1567 31.9423 11.2947 31.0179 12.058L32.0781 10.5171C32.9313 9.30036 32.6257 7.98396 31.4078 7.12971C30.1899 6.27876 26.7391 8.56659 26.7391 8.56659C27.5998 7.33781 27.4389 5.78046 26.2101 4.91855C24.9814 4.05994 23.2861 4.35674 22.4252 5.58771L11.0135 21.7088L12.4679 35.8091L24.6057 31.3823L35.1928 15.6852C36.0612 14.4488 35.7612 12.7436 34.5236 11.8762Z" fill="#90603E"/>
<path d="M36.4288 18.9401C36.4288 18.9401 37.6686 17.1331 35.8604 15.8944C34.0545 14.6558 32.8159 16.4617 32.8159 16.4617L27.065 24.8486C26.8669 24.5179 26.6499 24.1914 26.408 23.8695L34.3896 12.2311C34.3896 12.2311 35.6282 10.4251 33.8212 9.18648C32.0153 7.94783 30.7766 9.75377 30.7766 9.75377L23.2692 20.7023C22.9899 20.4745 22.704 20.2455 22.4096 20.021L31.1128 7.32688C31.1128 7.32688 32.3515 5.52091 30.5444 4.28229C28.7385 3.04364 27.4999 4.84958 27.4999 4.84958L18.7965 17.5416C18.4767 17.3455 18.1602 17.1758 17.8426 16.9962L25.9776 5.13324C25.9776 5.13324 27.2162 3.3273 25.4103 2.08865C23.6044 0.850002 22.3658 2.65594 22.3658 2.65594L13.7642 15.2001L12.4565 17.1079C17.8755 20.825 18.3913 27.8175 15.2952 32.333C14.6765 33.2366 13.7729 32.6177 13.7729 32.6177C17.4889 27.1977 16.3543 21.1074 10.9343 17.3915L12.5321 9.39455C12.5321 9.39455 13.129 7.28745 11.023 6.68947C8.91584 6.09261 8.31787 8.19971 8.31787 8.19971L6.4725 13.68C5.74094 15.8528 4.96225 18.018 3.9317 20.0659C1.02182 25.8484 2.75987 33.035 8.24669 36.799C14.2318 40.9027 22.4139 39.3771 26.5185 33.3931L36.4288 18.9401Z" fill="#AF7E57"/>
<path d="M26.2379 35.0455C30.6187 35.0455 35.0454 30.6189 35.0454 26.2381C35.0454 25.6326 35.4888 25.143 36.0945 25.143C36.7 25.143 37.2357 25.6326 37.2357 26.2381C37.2357 32.8091 32.809 37.236 26.2379 37.236C25.6322 37.236 25.1427 36.7004 25.1427 36.0947C25.1427 35.4891 25.6322 35.0455 26.2379 35.0455Z" fill="#5DADEC"/>
<path d="M31.7141 37.1899C34.9997 37.1899 37.1899 34.9994 37.1899 31.7139C37.1899 31.1084 37.6797 30.6189 38.2852 30.6189C38.8909 30.6189 39.3804 31.1084 39.3804 31.7139C39.3804 36.0947 36.0949 39.3802 31.7141 39.3802C31.1086 39.3802 30.6189 38.8907 30.6189 38.285C30.6189 37.6794 31.1086 37.1899 31.7141 37.1899ZM13.0962 2.14425C13.7007 2.14425 14.1914 2.63489 14.1914 3.23943C14.1914 3.84396 13.7007 4.33461 13.0962 4.33461C8.71549 4.33461 4.33478 8.26518 4.33478 13.096C4.33478 13.7005 3.84415 14.1912 3.2396 14.1912C2.63507 14.1912 2.14444 13.7005 2.14444 13.096C2.14444 7.0572 6.52514 2.14425 13.0962 2.14425Z" fill="#5DADEC"/>
<path d="M7.62019 0C8.22474 0 8.71537 0.444642 8.71537 1.04918C8.71537 1.65371 8.22474 2.19034 7.62019 2.19034C4.33466 2.19034 2.19032 4.62712 2.19032 7.62023C2.19032 8.22476 1.65478 8.71541 1.04915 8.71541C0.443516 8.71541 -3.05176e-05 8.22476 -3.05176e-05 7.62023C-3.05176e-05 3.41804 3.2395 0 7.62019 0Z" fill="#5DADEC"/>
</g>
<defs>
<clipPath id="clip0">
<rect width="40" height="40" fill="white"/>
</clipPath>
</defs>
</svg>
