<svg width="24" height="24" viewBox="0 0 24 24" fill="none" xmlns="http://www.w3.org/2000/svg">
<path d="M23.6136 24H0V0H23.6136V8.5261H22.4054V1.22034H1.2122V22.7797H22.4054V18.7769H23.6136V24Z" fill="#009591"/>
<path d="M11.5688 13.6881C11.5795 14.2351 11.479 14.7786 11.2733 15.2856C11.0677 15.7925 10.7612 16.2525 10.3724 16.6374C9.98367 17.0224 9.52077 17.3243 9.0118 17.525C8.50282 17.7257 7.95839 17.8208 7.41153 17.8047C5.10916 17.8047 3.20543 16.1573 3.20543 13.6881C3.20543 11.219 5.10916 9.57152 7.41153 9.57152C7.95824 9.55602 8.50242 9.6516 9.01113 9.85247C9.51983 10.0533 9.9825 10.3553 10.3711 10.7402C10.7598 11.125 11.0663 11.5847 11.2722 12.0914C11.478 12.5981 11.5789 13.1413 11.5688 13.6881ZM9.59187 13.6881C9.60438 13.3909 9.5577 13.0941 9.45454 12.8151C9.35137 12.536 9.19378 12.2802 8.99091 12.0626C8.78805 11.845 8.54396 11.6698 8.27283 11.5474C8.0017 11.4249 7.70893 11.3575 7.41153 11.3492C7.1105 11.3522 6.81314 11.4156 6.53707 11.5357C6.26099 11.6557 6.01183 11.83 5.80433 12.0481C5.59684 12.2662 5.43524 12.5237 5.3291 12.8055C5.22296 13.0872 5.17445 13.3873 5.18645 13.6881C5.1739 13.9893 5.22199 14.2899 5.32787 14.5721C5.43376 14.8543 5.59527 15.1123 5.80282 15.3308C6.01038 15.5494 6.25973 15.724 6.53608 15.8443C6.81243 15.9646 7.11014 16.0282 7.41153 16.0312C7.70928 16.0228 8.0024 15.9553 8.27381 15.8326C8.54522 15.7099 8.78949 15.5344 8.99241 15.3163C9.19533 15.0982 9.35283 14.842 9.45575 14.5625C9.55867 14.2829 9.60494 13.9857 9.59187 13.6881Z" fill="#009591"/>
<path d="M12.5776 17.8047V6.19525H14.6115V17.8047H12.5776Z" fill="#009591"/>
<path d="M24 17.5688H21.9661V16.9586C21.2423 17.5326 20.3389 17.8323 19.4156 17.8047C17.4509 17.8047 15.6285 16.1247 15.6285 13.6597C15.6285 11.1946 17.4509 9.49424 19.4156 9.49424C20.342 9.46447 21.2479 9.77077 21.9661 10.3566V9.73017H24V17.5688ZM21.9661 13.6597C21.9792 13.3599 21.9325 13.0606 21.8287 12.7791C21.725 12.4976 21.5663 12.2396 21.3619 12.02C21.1575 11.8004 20.9114 11.6237 20.638 11.5002C20.3646 11.3766 20.0694 11.3087 19.7695 11.3003C18.5492 11.3003 17.6054 12.2115 17.6054 13.6597C17.6054 15.1078 18.5329 15.9986 19.7695 15.9986C20.0683 15.9924 20.3628 15.9266 20.6358 15.8051C20.9088 15.6835 21.1549 15.5087 21.3594 15.2909C21.564 15.073 21.7231 14.8165 21.8272 14.5364C21.9314 14.2563 21.9786 13.9582 21.9661 13.6597Z" fill="#009591"/>
</svg>
